<?xml version="1.0" standalone="no"?><!DOCTYPE svg PUBLIC "-//W3C//DTD SVG 1.1//EN" "http://www.w3.org/Graphics/SVG/1.1/DTD/svg11.dtd"><svg t="1596028176994" class="icon" viewBox="0 0 1024 1024" version="1.1" xmlns="http://www.w3.org/2000/svg" p-id="7426" xmlns:xlink="http://www.w3.org/1999/xlink" width="200" height="200"><defs><style type="text/css"></style></defs><path d="M922.8 338.5c-22.5-53.1-54.6-100.8-95.5-141.7-40.9-40.9-88.6-73.1-141.7-95.5-55-23.3-113.4-35-173.5-35-60.2 0-118.6 11.8-173.5 35-53.1 22.5-100.8 54.6-141.7 95.5s-73.1 88.6-95.5 141.7c-23.3 55-35 113.4-35 173.5 0 60.2 11.8 118.6 35 173.5 22.5 53.1 54.6 100.8 95.5 141.7 40.9 40.9 88.6 73.1 141.7 95.5 55 23.3 113.4 35 173.5 35 60.2 0 118.6-11.8 173.5-35 53.1-22.5 100.8-54.6 141.7-95.5 40.9-40.9 73.1-88.6 95.5-141.7 23.3-55 35-113.4 35-173.5 0-60.2-11.8-118.6-35-173.5zM782 782c-72.1 72.1-168 111.8-270 111.8S314.1 854.1 242 782 130.2 614 130.2 512 169.9 314.1 242 242s168-111.8 270-111.8S709.9 169.9 782 242s111.8 168 111.8 270S854.1 709.9 782 782z" p-id="7427"></path><path d="M707.9 473.3H560.7V326.1c0-17.7-14.3-32-32-32s-32 14.3-32 32v147.2H349.4c-17.7 0-32 14.3-32 32s14.3 32 32 32h147.3v147.3c0 17.7 14.3 32 32 32s32-14.3 32-32V537.3h147.2c17.7 0 32-14.3 32-32s-14.3-32-32-32z" p-id="7428"></path></svg>